<svg width="168" height="48" viewBox="0 0 168 48" fill="none" xmlns="http://www.w3.org/2000/svg">
<path d="M42.2543 33V12H50.1743C52.2043 12 53.7093 12.435 54.6893 13.305C55.6793 14.165 56.1743 15.42 56.1743 17.07C56.1743 18.3 55.8943 19.33 55.3343 20.16C54.7843 20.98 53.9543 21.58 52.8443 21.96V21.24C54.5243 21.6 55.7793 22.26 56.6093 23.22C57.4393 24.18 57.8543 25.45 57.8543 27.03C57.8543 28.92 57.2443 30.39 56.0243 31.44C54.8043 32.48 53.1343 33 51.0143 33H42.2543ZM46.0943 29.58H50.4443C51.4943 29.58 52.3293 29.365 52.9493 28.935C53.5793 28.505 53.8943 27.73 53.8943 26.61C53.8943 25.47 53.5643 24.695 52.9043 24.285C52.2443 23.875 51.4243 23.67 50.4443 23.67H46.0943V29.58ZM46.0943 20.25H49.6043C50.5343 20.25 51.2293 20.06 51.6893 19.68C52.1593 19.3 52.3943 18.69 52.3943 17.85C52.3943 16.98 52.1593 16.36 51.6893 15.99C51.2293 15.61 50.5343 15.42 49.6043 15.42H46.0943V20.25ZM62.2336 33V12H66.0736V29.58H74.7136V33H62.2336ZM87.1135 33.42C85.1135 33.42 83.3335 32.97 81.7735 32.07C80.2135 31.16 78.9885 29.89 78.0985 28.26C77.2085 26.62 76.7635 24.7 76.7635 22.5C76.7635 20.3 77.2085 18.385 78.0985 16.755C78.9885 15.115 80.2135 13.845 81.7735 12.945C83.3335 12.035 85.1135 11.58 87.1135 11.58C89.1135 11.58 90.8935 12.035 92.4535 12.945C94.0135 13.845 95.2385 15.115 96.1285 16.755C97.0185 18.385 97.4635 20.3 97.4635 22.5C97.4635 24.7 97.0185 26.62 96.1285 28.26C95.2385 29.89 94.0135 31.16 92.4535 32.07C90.8935 32.97 89.1135 33.42 87.1135 33.42ZM87.1135 29.7C88.5135 29.7 89.6835 29.39 90.6235 28.77C91.5635 28.15 92.2685 27.3 92.7385 26.22C93.2085 25.13 93.4435 23.89 93.4435 22.5C93.4435 21.11 93.2085 19.875 92.7385 18.795C92.2685 17.705 91.5635 16.85 90.6235 16.23C89.6835 15.61 88.5135 15.3 87.1135 15.3C85.7135 15.3 84.5435 15.61 83.6035 16.23C82.6635 16.85 81.9585 17.705 81.4885 18.795C81.0185 19.875 80.7835 21.11 80.7835 22.5C80.7835 23.89 81.0185 25.13 81.4885 26.22C81.9585 27.3 82.6635 28.15 83.6035 28.77C84.5435 29.39 85.7135 29.7 87.1135 29.7ZM111.346 33.42C109.126 33.42 107.226 32.97 105.646 32.07C104.066 31.16 102.856 29.885 102.016 28.245C101.176 26.605 100.756 24.68 100.756 22.47C100.756 20.28 101.221 18.37 102.151 16.74C103.091 15.1 104.386 13.83 106.036 12.93C107.686 12.03 109.586 11.58 111.736 11.58C112.846 11.58 113.906 11.695 114.916 11.925C115.936 12.155 116.806 12.45 117.526 12.81L117.106 16.47C116.356 16.12 115.526 15.835 114.616 15.615C113.716 15.385 112.756 15.27 111.736 15.27C110.176 15.27 108.896 15.585 107.896 16.215C106.896 16.835 106.156 17.685 105.676 18.765C105.196 19.835 104.956 21.05 104.956 22.41C104.956 23.84 105.196 25.105 105.676 26.205C106.166 27.305 106.896 28.17 107.866 28.8C108.836 29.42 110.046 29.73 111.496 29.73C111.936 29.73 112.396 29.7 112.876 29.64C113.366 29.58 113.866 29.5 114.376 29.4V25.65H111.496V22.47H118.216V31.83C117.486 32.26 116.516 32.635 115.306 32.955C114.106 33.265 112.786 33.42 111.346 33.42ZM132.468 33.42C130.248 33.42 128.348 32.97 126.768 32.07C125.188 31.16 123.978 29.885 123.138 28.245C122.298 26.605 121.878 24.68 121.878 22.47C121.878 20.28 122.343 18.37 123.273 16.74C124.213 15.1 125.508 13.83 127.158 12.93C128.808 12.03 130.708 11.58 132.858 11.58C133.968 11.58 135.028 11.695 136.038 11.925C137.058 12.155 137.928 12.45 138.648 12.81L138.228 16.47C137.478 16.12 136.648 15.835 135.738 15.615C134.838 15.385 133.878 15.27 132.858 15.27C131.298 15.27 130.018 15.585 129.018 16.215C128.018 16.835 127.278 17.685 126.798 18.765C126.318 19.835 126.078 21.05 126.078 22.41C126.078 23.84 126.318 25.105 126.798 26.205C127.288 27.305 128.018 28.17 128.988 28.8C129.958 29.42 131.168 29.73 132.618 29.73C133.058 29.73 133.518 29.7 133.998 29.64C134.488 29.58 134.988 29.5 135.498 29.4V25.65H132.618V22.47H139.338V31.83C138.608 32.26 137.638 32.635 136.428 32.955C135.228 33.265 133.908 33.42 132.468 33.42ZM149.09 33V24.51L141.71 12H145.91L151.91 22.65H150.11L156.11 12H160.31L152.93 24.51V33H149.09Z" fill="white"/>
<path d="M42.4596 45V39.4H44.5476C45.0836 39.4 45.5596 39.512 45.9756 39.736C46.3943 39.9573 46.7223 40.2773 46.9596 40.696C47.197 41.112 47.3156 41.6133 47.3156 42.2C47.3156 42.7867 47.197 43.2893 46.9596 43.708C46.7223 44.124 46.3943 44.444 45.9756 44.668C45.5596 44.8893 45.0836 45 44.5476 45H42.4596ZM43.3876 44.168H44.5476C44.9343 44.168 45.257 44.088 45.5156 43.928C45.7743 43.7653 45.969 43.5373 46.0996 43.244C46.233 42.948 46.2996 42.6 46.2996 42.2C46.2996 41.8 46.233 41.4533 46.0996 41.16C45.969 40.864 45.7743 40.636 45.5156 40.476C45.257 40.3133 44.9343 40.232 44.5476 40.232H43.3876V44.168ZM48.3464 45V41.028H49.2384V45H48.3464ZM48.3464 40.324V39.4H49.2384V40.324H48.3464ZM51.6381 45.08C51.3448 45.08 51.0888 45.0493 50.8701 44.988C50.6515 44.924 50.4581 44.8507 50.2901 44.768L50.3781 43.972C50.5381 44.076 50.7208 44.1693 50.9261 44.252C51.1315 44.332 51.3581 44.372 51.6061 44.372C51.8248 44.372 51.9915 44.3373 52.1061 44.268C52.2208 44.196 52.2781 44.0867 52.2781 43.94C52.2781 43.8253 52.2448 43.732 52.1781 43.66C52.1115 43.5853 52.0208 43.5227 51.9061 43.472C51.7941 43.4187 51.6675 43.368 51.5261 43.32C51.3048 43.2453 51.1048 43.1613 50.9261 43.068C50.7475 42.972 50.6048 42.8493 50.4981 42.7C50.3941 42.5507 50.3421 42.3573 50.3421 42.12C50.3421 41.9013 50.3981 41.704 50.5101 41.528C50.6221 41.3493 50.7875 41.208 51.0061 41.104C51.2248 41 51.4968 40.948 51.8221 40.948C52.0781 40.948 52.2995 40.976 52.4861 41.032C52.6755 41.088 52.8461 41.1573 52.9981 41.24L52.9101 42.02C52.7528 41.9053 52.5888 41.8107 52.4181 41.736C52.2475 41.6587 52.0541 41.62 51.8381 41.62C51.6461 41.62 51.4941 41.6573 51.3821 41.732C51.2728 41.8067 51.2181 41.9173 51.2181 42.064C51.2181 42.2293 51.2875 42.3507 51.4261 42.428C51.5648 42.5053 51.7808 42.5973 52.0741 42.704C52.2288 42.76 52.3728 42.8213 52.5061 42.888C52.6395 42.9547 52.7568 43.0333 52.8581 43.124C52.9595 43.2147 53.0381 43.3227 53.0941 43.448C53.1501 43.5733 53.1781 43.7227 53.1781 43.896C53.1781 44.12 53.1248 44.3213 53.0181 44.5C52.9115 44.6787 52.7448 44.82 52.5181 44.924C52.2915 45.028 51.9981 45.08 51.6381 45.08ZM56.0255 45.08C55.5722 45.08 55.1922 44.988 54.8855 44.804C54.5788 44.6173 54.3468 44.3693 54.1895 44.06C54.0348 43.748 53.9575 43.404 53.9575 43.028C53.9575 42.644 54.0335 42.2947 54.1855 41.98C54.3402 41.6653 54.5735 41.4147 54.8855 41.228C55.1975 41.0413 55.5908 40.948 56.0655 40.948C56.2842 40.948 56.4842 40.972 56.6655 41.02C56.8468 41.0653 57.0042 41.124 57.1375 41.196L57.0455 41.936C56.9148 41.8693 56.7708 41.816 56.6135 41.776C56.4562 41.7333 56.2922 41.712 56.1215 41.712C55.7215 41.712 55.4122 41.8307 55.1935 42.068C54.9775 42.3027 54.8695 42.6187 54.8695 43.016C54.8695 43.3973 54.9775 43.712 55.1935 43.96C55.4095 44.208 55.7148 44.332 56.1095 44.332C56.2775 44.332 56.4402 44.3093 56.5975 44.264C56.7548 44.2187 56.9068 44.156 57.0535 44.076L57.1455 44.82C57.0175 44.892 56.8535 44.9533 56.6535 45.004C56.4562 45.0547 56.2468 45.08 56.0255 45.08ZM59.8832 45.08C59.4566 45.08 59.0926 44.9867 58.7912 44.8C58.4926 44.6133 58.2632 44.364 58.1032 44.052C57.9459 43.74 57.8672 43.396 57.8672 43.02C57.8672 42.644 57.9459 42.2987 58.1032 41.984C58.2632 41.6693 58.4926 41.4187 58.7912 41.232C59.0926 41.0427 59.4566 40.948 59.8832 40.948C60.3072 40.948 60.6699 41.0427 60.9712 41.232C61.2726 41.4187 61.5019 41.6693 61.6592 41.984C61.8192 42.2987 61.8992 42.644 61.8992 43.02C61.8992 43.396 61.8192 43.74 61.6592 44.052C61.5019 44.364 61.2726 44.6133 60.9712 44.8C60.6699 44.9867 60.3072 45.08 59.8832 45.08ZM59.8832 44.328C60.2352 44.328 60.5059 44.2093 60.6952 43.972C60.8872 43.732 60.9832 43.4147 60.9832 43.02C60.9832 42.62 60.8872 42.3 60.6952 42.06C60.5059 41.82 60.2352 41.7 59.8832 41.7C59.5312 41.7 59.2592 41.82 59.0672 42.06C58.8752 42.3 58.7792 42.62 58.7792 43.02C58.7792 43.4147 58.8752 43.732 59.0672 43.972C59.2592 44.2093 59.5312 44.328 59.8832 44.328ZM63.9449 45L62.4209 41.028H63.3329L64.3609 43.928L65.3809 41.028H66.2969L64.7769 45H63.9449ZM68.9677 45.08C68.4931 45.08 68.0957 44.984 67.7757 44.792C67.4584 44.6 67.2184 44.3467 67.0557 44.032C66.8957 43.7147 66.8157 43.3667 66.8157 42.988C66.8157 42.6227 66.8904 42.2867 67.0397 41.98C67.1917 41.6707 67.4117 41.424 67.6997 41.24C67.9904 41.0533 68.3424 40.96 68.7557 40.96C69.1184 40.96 69.4277 41.0333 69.6837 41.18C69.9397 41.3267 70.1344 41.5293 70.2678 41.788C70.4038 42.044 70.4718 42.3373 70.4718 42.668C70.4718 42.7427 70.4664 42.8213 70.4557 42.904C70.4477 42.984 70.4357 43.0667 70.4197 43.152H67.7397C67.7771 43.4427 67.8584 43.6733 67.9837 43.844C68.1091 44.0147 68.2651 44.1387 68.4517 44.216C68.6384 44.2907 68.8397 44.328 69.0557 44.328C69.2691 44.328 69.4744 44.3027 69.6717 44.252C69.8717 44.1987 70.0571 44.1267 70.2278 44.036L70.2957 44.776C70.1437 44.8507 69.9557 44.92 69.7318 44.984C69.5077 45.048 69.2531 45.08 68.9677 45.08ZM67.7797 42.544H69.5597C69.5597 42.4 69.5317 42.2653 69.4757 42.14C69.4224 42.012 69.3357 41.9093 69.2157 41.832C69.0984 41.752 68.9437 41.712 68.7517 41.712C68.4717 41.712 68.2531 41.788 68.0957 41.94C67.9411 42.092 67.8357 42.2933 67.7797 42.544ZM71.4851 45V41.028H72.2931L72.3371 41.536C72.4758 41.3733 72.6371 41.2347 72.8211 41.12C73.0051 41.0053 73.2038 40.948 73.4171 40.948C73.4811 40.948 73.5411 40.9547 73.5971 40.968L73.5251 41.876C73.4745 41.8627 73.4238 41.8547 73.3731 41.852C73.3225 41.8467 73.2705 41.844 73.2171 41.844C73.0358 41.844 72.8691 41.8853 72.7171 41.968C72.5651 42.0507 72.4585 42.1467 72.3971 42.256V45H71.4851ZM74.6443 45.924H74.1803L74.5043 45H74.1443V44H75.1203V44.908L74.6443 45.924ZM80.1819 45.112C79.9525 45.112 79.7192 45.092 79.4819 45.052C79.2445 45.012 79.0245 44.9627 78.8219 44.904C78.6219 44.8427 78.4592 44.7813 78.3339 44.72L78.4499 43.736C78.6205 43.8187 78.8072 43.8987 79.0099 43.976C79.2125 44.0507 79.4245 44.1133 79.6459 44.164C79.8699 44.212 80.0952 44.236 80.3219 44.236C80.6259 44.236 80.8685 44.1787 81.0499 44.064C81.2339 43.9467 81.3259 43.768 81.3259 43.528C81.3259 43.344 81.2765 43.1947 81.1779 43.08C81.0792 42.9653 80.9299 42.8653 80.7299 42.78C80.5299 42.692 80.2765 42.5973 79.9699 42.496C79.6685 42.3973 79.3952 42.284 79.1499 42.156C78.9045 42.0253 78.7085 41.8573 78.5619 41.652C78.4179 41.4467 78.3459 41.1813 78.3459 40.856C78.3459 40.552 78.4219 40.2813 78.5739 40.044C78.7259 39.8067 78.9525 39.6213 79.2539 39.488C79.5552 39.3547 79.9272 39.288 80.3699 39.288C80.7219 39.288 81.0525 39.3267 81.3619 39.404C81.6712 39.4813 81.9312 39.5653 82.1419 39.656L82.0459 40.616C81.7365 40.4613 81.4432 40.3467 81.1659 40.272C80.8912 40.1973 80.6085 40.16 80.3179 40.16C80.0085 40.16 79.7632 40.2133 79.5819 40.32C79.4005 40.4267 79.3099 40.5933 79.3099 40.82C79.3099 40.988 79.3565 41.124 79.4499 41.228C79.5432 41.332 79.6765 41.4213 79.8499 41.496C80.0259 41.5707 80.2405 41.6467 80.4939 41.724C80.8939 41.8493 81.2325 41.988 81.5099 42.14C81.7872 42.292 81.9965 42.4773 82.1379 42.696C82.2819 42.9147 82.3539 43.1853 82.3539 43.508C82.3539 43.6947 82.3219 43.884 82.2579 44.076C82.1939 44.2653 82.0805 44.4387 81.9179 44.596C81.7579 44.7507 81.5365 44.876 81.2539 44.972C80.9712 45.0653 80.6139 45.112 80.1819 45.112ZM83.3274 45V39H84.2234V41.648L83.9874 41.532C84.1608 41.372 84.3488 41.2373 84.5514 41.128C84.7541 41.016 85.0034 40.96 85.2994 40.96C85.6461 40.96 85.9314 41.0373 86.1554 41.192C86.3794 41.3467 86.5448 41.5613 86.6514 41.836C86.7581 42.1107 86.8114 42.4293 86.8114 42.792V45H85.9194V42.868C85.9194 42.4733 85.8514 42.1827 85.7154 41.996C85.5821 41.8067 85.3701 41.712 85.0794 41.712C84.8421 41.712 84.6408 41.7707 84.4754 41.888C84.3128 42.0053 84.1754 42.1627 84.0634 42.36L84.2234 41.86V45H83.3274ZM88.9222 45.08C88.6982 45.08 88.4969 45.032 88.3182 44.936C88.1396 44.84 87.9982 44.704 87.8942 44.528C87.7929 44.352 87.7422 44.144 87.7422 43.904C87.7422 43.68 87.7929 43.488 87.8942 43.328C87.9982 43.1653 88.1342 43.0307 88.3022 42.924C88.4729 42.8173 88.6582 42.7333 88.8582 42.672C89.0609 42.608 89.2636 42.5613 89.4662 42.532C89.6716 42.5027 89.8582 42.4867 90.0262 42.484C90.0182 42.2013 89.9529 42.0067 89.8303 41.9C89.7102 41.7907 89.5196 41.736 89.2582 41.736C89.0902 41.736 88.9222 41.76 88.7542 41.808C88.5862 41.856 88.3956 41.94 88.1822 42.06L88.0902 41.332C88.3009 41.2147 88.5249 41.124 88.7622 41.06C89.0022 40.9933 89.2476 40.96 89.4982 40.96C89.8102 40.96 90.0716 41.0147 90.2822 41.124C90.4929 41.2333 90.6516 41.4133 90.7582 41.664C90.8676 41.9147 90.9223 42.2493 90.9223 42.668V43.644C90.9223 43.8387 90.9316 43.9867 90.9502 44.088C90.9689 44.1893 91.0049 44.2587 91.0582 44.296C91.1143 44.3333 91.1983 44.352 91.3103 44.352H91.4183L91.3223 45.08H91.0742C90.8929 45.08 90.7422 45.0587 90.6223 45.016C90.5023 44.976 90.4036 44.9187 90.3263 44.844C90.2516 44.7693 90.1876 44.68 90.1342 44.576C89.9982 44.7307 89.8222 44.8533 89.6063 44.944C89.3929 45.0347 89.1649 45.08 88.9222 45.08ZM89.2342 44.388C89.3596 44.388 89.4969 44.356 89.6463 44.292C89.7956 44.2253 89.9236 44.132 90.0303 44.012V43.092C89.7743 43.1 89.5436 43.1333 89.3382 43.192C89.1329 43.248 88.9702 43.332 88.8502 43.444C88.7329 43.5533 88.6742 43.6933 88.6742 43.864C88.6742 44.0427 88.7209 44.1747 88.8142 44.26C88.9102 44.3453 89.0502 44.388 89.2342 44.388ZM92.2879 45V41.028H93.0959L93.1399 41.536C93.2786 41.3733 93.4399 41.2347 93.6239 41.12C93.8079 41.0053 94.0066 40.948 94.2199 40.948C94.2839 40.948 94.3439 40.9547 94.3999 40.968L94.3279 41.876C94.2773 41.8627 94.2266 41.8547 94.1759 41.852C94.1253 41.8467 94.0733 41.844 94.0199 41.844C93.8386 41.844 93.6719 41.8853 93.5199 41.968C93.3679 42.0507 93.2613 42.1467 93.1999 42.256V45H92.2879ZM97.0434 45.08C96.5687 45.08 96.1714 44.984 95.8514 44.792C95.534 44.6 95.294 44.3467 95.1314 44.032C94.9714 43.7147 94.8914 43.3667 94.8914 42.988C94.8914 42.6227 94.966 42.2867 95.1154 41.98C95.2674 41.6707 95.4874 41.424 95.7754 41.24C96.066 41.0533 96.418 40.96 96.8314 40.96C97.194 40.96 97.5034 41.0333 97.7594 41.18C98.0154 41.3267 98.21 41.5293 98.3434 41.788C98.4794 42.044 98.5474 42.3373 98.5474 42.668C98.5474 42.7427 98.542 42.8213 98.5314 42.904C98.5234 42.984 98.5114 43.0667 98.4954 43.152H95.8154C95.8527 43.4427 95.934 43.6733 96.0594 43.844C96.1847 44.0147 96.3407 44.1387 96.5274 44.216C96.714 44.2907 96.9154 44.328 97.1314 44.328C97.3447 44.328 97.55 44.3027 97.7474 44.252C97.9474 44.1987 98.1327 44.1267 98.3034 44.036L98.3714 44.776C98.2194 44.8507 98.0314 44.92 97.8074 44.984C97.5834 45.048 97.3287 45.08 97.0434 45.08ZM95.8554 42.544H97.6354C97.6354 42.4 97.6074 42.2653 97.5514 42.14C97.498 42.012 97.4114 41.9093 97.2914 41.832C97.174 41.752 97.0194 41.712 96.8274 41.712C96.5474 41.712 96.3287 41.788 96.1714 41.94C96.0167 42.092 95.9114 42.2933 95.8554 42.544ZM100.033 45.924H99.5687L99.8927 45H99.5327V44H100.509V44.908L100.033 45.924ZM103.954 45V39.4H104.882V45H103.954ZM106.232 45V41.028H107.028L107.104 41.776L106.856 41.54C107.048 41.3507 107.256 41.2067 107.48 41.108C107.706 41.0093 107.953 40.96 108.22 40.96C108.753 40.96 109.144 41.128 109.392 41.464C109.64 41.8 109.764 42.244 109.764 42.796V45H108.872V42.844C108.872 42.4547 108.804 42.1693 108.668 41.988C108.532 41.804 108.308 41.712 107.996 41.712C107.753 41.712 107.546 41.768 107.376 41.88C107.205 41.992 107.072 42.1533 106.976 42.364L107.124 41.892V45H106.232ZM112.117 45.08C111.824 45.08 111.568 45.0493 111.349 44.988C111.131 44.924 110.937 44.8507 110.769 44.768L110.857 43.972C111.017 44.076 111.2 44.1693 111.405 44.252C111.611 44.332 111.837 44.372 112.085 44.372C112.304 44.372 112.471 44.3373 112.585 44.268C112.7 44.196 112.757 44.0867 112.757 43.94C112.757 43.8253 112.724 43.732 112.657 43.66C112.591 43.5853 112.5 43.5227 112.385 43.472C112.273 43.4187 112.147 43.368 112.005 43.32C111.784 43.2453 111.584 43.1613 111.405 43.068C111.227 42.972 111.084 42.8493 110.977 42.7C110.873 42.5507 110.821 42.3573 110.821 42.12C110.821 41.9013 110.877 41.704 110.989 41.528C111.101 41.3493 111.267 41.208 111.485 41.104C111.704 41 111.976 40.948 112.301 40.948C112.557 40.948 112.779 40.976 112.965 41.032C113.155 41.088 113.325 41.1573 113.477 41.24L113.389 42.02C113.232 41.9053 113.068 41.8107 112.897 41.736C112.727 41.6587 112.533 41.62 112.317 41.62C112.125 41.62 111.973 41.6573 111.861 41.732C111.752 41.8067 111.697 41.9173 111.697 42.064C111.697 42.2293 111.767 42.3507 111.905 42.428C112.044 42.5053 112.26 42.5973 112.553 42.704C112.708 42.76 112.852 42.8213 112.985 42.888C113.119 42.9547 113.236 43.0333 113.337 43.124C113.439 43.2147 113.517 43.3227 113.573 43.448C113.629 43.5733 113.657 43.7227 113.657 43.896C113.657 44.12 113.604 44.3213 113.497 44.5C113.391 44.6787 113.224 44.82 112.997 44.924C112.771 45.028 112.477 45.08 112.117 45.08ZM114.669 46.936V41.028H115.381L115.553 41.776L115.289 41.66C115.467 41.4467 115.669 41.2773 115.893 41.152C116.119 41.024 116.395 40.96 116.721 40.96C117.102 40.96 117.423 41.0533 117.685 41.24C117.949 41.4267 118.149 41.676 118.285 41.988C118.421 42.3 118.489 42.644 118.489 43.02C118.489 43.396 118.422 43.74 118.289 44.052C118.155 44.364 117.958 44.6133 117.697 44.8C117.435 44.9867 117.11 45.08 116.721 45.08C116.409 45.08 116.145 45.0293 115.929 44.928C115.715 44.8267 115.525 44.6693 115.357 44.456L115.561 44.276V46.936H114.669ZM116.577 44.328C116.891 44.328 117.137 44.2093 117.313 43.972C117.489 43.732 117.577 43.4147 117.577 43.02C117.577 42.6227 117.489 42.3053 117.313 42.068C117.137 41.8307 116.891 41.712 116.577 41.712C116.353 41.712 116.161 41.7653 116.001 41.872C115.843 41.976 115.723 42.1253 115.641 42.32C115.558 42.5147 115.517 42.748 115.517 43.02C115.517 43.2973 115.558 43.5333 115.641 43.728C115.723 43.9227 115.843 44.072 116.001 44.176C116.161 44.2773 116.353 44.328 116.577 44.328ZM119.52 45V41.028H120.412V45H119.52ZM119.52 40.324V39.4H120.412V40.324H119.52ZM121.684 45V41.028H122.492L122.536 41.536C122.674 41.3733 122.836 41.2347 123.02 41.12C123.204 41.0053 123.402 40.948 123.616 40.948C123.68 40.948 123.74 40.9547 123.796 40.968L123.724 41.876C123.673 41.8627 123.622 41.8547 123.572 41.852C123.521 41.8467 123.469 41.844 123.416 41.844C123.234 41.844 123.068 41.8853 122.916 41.968C122.764 42.0507 122.657 42.1467 122.596 42.256V45H121.684ZM126.439 45.08C125.964 45.08 125.567 44.984 125.247 44.792C124.93 44.6 124.69 44.3467 124.527 44.032C124.367 43.7147 124.287 43.3667 124.287 42.988C124.287 42.6227 124.362 42.2867 124.511 41.98C124.663 41.6707 124.883 41.424 125.171 41.24C125.462 41.0533 125.814 40.96 126.227 40.96C126.59 40.96 126.899 41.0333 127.155 41.18C127.411 41.3267 127.606 41.5293 127.739 41.788C127.875 42.044 127.943 42.3373 127.943 42.668C127.943 42.7427 127.938 42.8213 127.927 42.904C127.919 42.984 127.907 43.0667 127.891 43.152H125.211C125.248 43.4427 125.33 43.6733 125.455 43.844C125.58 44.0147 125.736 44.1387 125.923 44.216C126.11 44.2907 126.311 44.328 126.527 44.328C126.74 44.328 126.946 44.3027 127.143 44.252C127.343 44.1987 127.528 44.1267 127.699 44.036L127.767 44.776C127.615 44.8507 127.427 44.92 127.203 44.984C126.979 45.048 126.724 45.08 126.439 45.08ZM125.251 42.544H127.031C127.031 42.4 127.003 42.2653 126.947 42.14C126.894 42.012 126.807 41.9093 126.687 41.832C126.57 41.752 126.415 41.712 126.223 41.712C125.943 41.712 125.724 41.788 125.567 41.94C125.412 42.092 125.307 42.2933 125.251 42.544Z" fill="white"/>
<path d="M31.6667 32.1667H25.3333C23.5844 32.1667 22.1667 33.5844 22.1667 35.3333V41.6667C22.1667 43.4156 23.5844 44.8333 25.3333 44.8333H31.6667C33.4156 44.8333 34.8333 43.4156 34.8333 41.6667V35.3333C34.8333 33.5844 33.4156 32.1667 31.6667 32.1667Z" fill="white" stroke="black" stroke-width="2" stroke-linecap="round" stroke-linejoin="round"/>
<path d="M12.6667 13.1667H6.33334C4.58444 13.1667 3.16667 14.5844 3.16667 16.3333V22.6667C3.16667 24.4156 4.58444 25.8333 6.33334 25.8333H12.6667C14.4156 25.8333 15.8333 24.4156 15.8333 22.6667V16.3333C15.8333 14.5844 14.4156 13.1667 12.6667 13.1667Z" fill="white" stroke="black" stroke-width="2" stroke-linecap="round" stroke-linejoin="round"/>
<path d="M11.0833 32.1667V33.75C11.0833 34.5899 11.417 35.3953 12.0108 35.9892C12.6047 36.583 13.4101 36.9167 14.25 36.9167H15.8333" stroke="white" stroke-width="2" stroke-linecap="round" stroke-linejoin="round"/>
<path d="M22.1667 21.0833H23.75C24.5899 21.0833 25.3953 21.417 25.9892 22.0108C26.583 22.6047 26.9167 23.4102 26.9167 24.25V25.8333" stroke="white" stroke-width="2" stroke-linecap="round" stroke-linejoin="round"/>
<circle cx="9.56667" cy="19.5667" r="3.5" fill="black"/>
<circle cx="28.5667" cy="38.5667" r="3.5" fill="black"/>
<path d="M19.3167 27.7333H17.4167C16.892 27.7333 16.4667 28.1587 16.4667 28.6833V30.5833C16.4667 31.108 16.892 31.5333 17.4167 31.5333H19.3167C19.8413 31.5333 20.2667 31.108 20.2667 30.5833V28.6833C20.2667 28.1587 19.8413 27.7333 19.3167 27.7333Z" fill="black" stroke="black" stroke-width="2" stroke-linecap="round" stroke-linejoin="round"/>
<circle cx="18.3667" cy="29.6333" r="1.33" fill="white"/>
</svg>
