<svg width="250" height="227" viewBox="0 0 250 227" fill="none" xmlns="http://www.w3.org/2000/svg">
<rect width="250" height="227" rx="100" fill="#FAF6F6"/>
<path d="M115.042 171.222C111.597 171.829 108.895 171.742 106.938 170.961C105.079 170.249 103.738 169.273 102.912 168.032C102.171 166.776 101.734 165.77 101.6 165.014C101.17 162.577 101.907 160.367 103.811 158.385C105.783 156.304 108.156 155.019 110.929 154.53C113.619 154.056 116.871 153.093 120.688 151.64C124.573 150.088 128.61 148.164 132.797 145.866C137.068 143.553 141.063 140.899 144.781 137.904C148.582 134.894 151.779 131.644 154.369 128.154C156.96 124.665 158.532 121.052 159.087 117.315C157.179 117.304 155.285 117.378 153.407 117.536C151.514 117.61 149.643 117.81 147.794 118.136C141.575 119.233 135.265 121.039 128.863 123.554C122.461 126.069 116.094 128.535 109.761 130.951C108.224 131.569 106.743 131.527 105.32 130.824C105.463 132.619 105.584 134.287 105.682 135.829C105.85 137.273 106.04 138.842 106.253 140.538C106.811 144.685 106.996 147.945 106.807 150.318C106.688 152.592 106.374 154.25 105.865 155.293C105.356 156.336 104.738 157.009 104.011 157.31C103.284 157.611 102.585 157.821 101.913 157.94C101.66 157.984 101.492 158.014 101.408 158.029C99.8957 158.296 98.4004 158.169 96.9224 157.65C95.4445 157.131 94.0779 155.769 92.8226 153.564C91.5525 151.275 90.4877 147.694 89.6283 142.819C86.9018 127.357 86.2709 113.951 87.7357 102.601C89.2697 91.1528 92.7337 82.0503 98.1277 75.2937C103.591 68.4382 110.818 64.2177 119.81 62.6321C126.87 61.3874 132.715 62.3497 137.346 65.5189C141.963 68.6042 144.901 73.7183 146.16 80.8615C146.797 84.4751 146.72 88.2146 145.929 92.0801C145.137 95.9456 143.75 99.8728 141.767 103.862C143.305 103.244 144.815 102.718 146.298 102.283C147.766 101.764 149.173 101.386 150.517 101.149C158.417 99.7562 164.509 100.155 168.795 102.345C173.065 104.452 175.616 107.858 176.445 112.564C177.275 117.27 176.709 121.919 174.745 126.511C172.866 131.088 170.046 135.485 166.283 139.701C162.59 143.818 158.383 147.723 153.662 151.415C148.926 155.023 144.123 158.252 139.253 161.104C134.369 163.871 129.781 166.11 125.49 167.82C121.214 169.614 117.732 170.748 115.042 171.222ZM104.543 117.574C105.003 117.233 105.519 116.969 106.093 116.781C113.434 114.187 118.929 111.441 122.577 108.545C126.226 105.649 128.517 102.429 129.452 98.8846C130.387 95.3405 130.454 91.2994 129.654 86.7614C129.447 85.5849 129.056 84.354 128.483 83.0686C127.91 81.7833 127.037 80.7674 125.866 80.0208C124.764 79.1753 123.246 78.923 121.313 79.2638C114.927 80.39 110.438 84.1709 107.846 90.6067C105.324 96.9435 104.223 105.933 104.543 117.574Z" fill="black"/>
</svg>
